<svg xmlns="http://www.w3.org/2000/svg" width="21" height="21" viewBox="0 0 21 21" fill="none" role="img" class="icon user-card-profile__icon">
<path d="M9.39583 3.41667H6.6625C5.22737 3.41667 4.5098 3.41667 3.96165 3.69596C3.47948 3.94164 3.08747 4.33365 2.8418 4.81582C2.5625 5.36396 2.5625 6.08153 2.5625 7.51667V13.8375C2.5625 15.2726 2.5625 15.9902 2.8418 16.5384C3.08747 17.0205 3.47948 17.4125 3.96165 17.6582C4.5098 17.9375 5.22737 17.9375 6.6625 17.9375H12.9833C14.4185 17.9375 15.136 17.9375 15.6842 17.6582C16.1663 17.4125 16.5584 17.0205 16.804 16.5384C17.0833 15.9902 17.0833 15.2726 17.0833 13.8375V11.1042M11.1042 14.5208H5.97917M12.8125 11.1042H5.97917M17.187 3.31304C18.1877 4.31376 18.1877 5.93624 17.187 6.93696C16.1862 7.93768 14.5638 7.93768 13.563 6.93696C12.5623 5.93624 12.5623 4.31376 13.563 3.31304C14.5638 2.31232 16.1862 2.31232 17.187 3.31304Z" stroke="currentColor" stroke-width="1.69456" stroke-linecap="round" stroke-linejoin="round"></path>
</svg>